<?xml version="1.0" encoding="iso-8859-1"?>
<!-- Generator: Adobe Illustrator 16.0.0, SVG Export Plug-In . SVG Version: 6.00 Build 0)  -->
<!DOCTYPE svg PUBLIC "-//W3C//DTD SVG 1.1//EN" "http://www.w3.org/Graphics/SVG/1.1/DTD/svg11.dtd">
<svg version="1.1" id="Capa_1" xmlns="http://www.w3.org/2000/svg" xmlns:xlink="http://www.w3.org/1999/xlink" x="0px" y="0px"
	 width="188.873px" height="188.873px" viewBox="0 0 188.873 188.873" style="enable-background:new 0 0 188.873 188.873;"
	 xml:space="preserve">
<g>
	<path d="M101.245,27.578c0,0-7.191-2.5-12.504,0c-0.597-1.708-2.293-8.741-4.129-11.031c-0.292,1.541-2.149,8.014-1.382,13.78
		c-0.524,0.725-3.568,7.435-2.253,20.685C77.966,50.966,22.342,29.505,25.453,0c-5.623,8.168-51.615,69.236-1.129,161.295
		c0.414-10.82,5.008-41.363,14.885-41.363c9.871,0,19.26,33.095,19.26,33.095s6.293-33.095,13.755-33.095
		c7.465,0,23.388,68.941,23.388,68.941s8.318-68.941,20.643-68.941c12.318,0,15.132,33.095,15.132,33.095s6.74-33.095,17.884-33.095
		c11.148,0,15.138,41.363,15.138,41.363S217.201,76.787,164.743,0c-3.538,8.555-16.594,36.839-57.104,51.012
		c0.768-3.432,1.888-16.526-0.883-20.685c0-6.927-2.527-13.78-2.746-13.78C103.389,16.705,102.45,21.382,101.245,27.578"/>
</g>
<g>
</g>
<g>
</g>
<g>
</g>
<g>
</g>
<g>
</g>
<g>
</g>
<g>
</g>
<g>
</g>
<g>
</g>
<g>
</g>
<g>
</g>
<g>
</g>
<g>
</g>
<g>
</g>
<g>
</g>
</svg>
